<svg id="Layer_1" enable-background="new 0 0 512 512" height="512" viewBox="0 0 512 512" width="512" xmlns="http://www.w3.org/2000/svg"><g id="XMLID_1853_"><g id="XMLID_1741_"><g id="XMLID_288_"><path id="XMLID_304_" d="m437.019 74.98c-48.352-48.352-112.639-74.98-181.019-74.98s-132.667 26.628-181.02 74.981c-48.352 48.352-74.98 112.639-74.98 181.019s26.628 132.667 74.981 181.02c48.352 48.352 112.639 74.98 181.019 74.98 51.345 0 100.879-15.146 143.247-43.8 4.575-3.094 5.775-9.311 2.681-13.885-3.094-4.575-9.311-5.778-13.885-2.681-39.047 26.408-84.707 40.366-132.043 40.366-130.131 0-236-105.869-236-236s105.869-236 236-236 236 105.869 236 236c0 48.858-14.795 95.731-42.787 135.553-3.176 4.518-2.088 10.755 2.431 13.932 4.517 3.177 10.755 2.088 13.932-2.431 30.371-43.207 46.424-94.057 46.424-147.054 0-68.38-26.628-132.667-74.981-181.02z"/><path id="XMLID_307_" d="m387.927 99.511c-.172-2.856-1.56-5.502-3.812-7.268-36.919-28.944-81.22-44.243-128.115-44.243-114.691 0-208 93.309-208 208 0 46.895 15.299 91.196 44.244 128.116 1.766 2.252 4.411 3.64 7.268 3.812.201.012.402.018.603.018 2.643 0 5.189-1.048 7.07-2.929l277.832-277.832c2.023-2.024 3.083-4.817 2.91-7.674zm-120.01 96.489h-58.425l14.13-24h64.757l1.311 2.227zm-75.949 20c.008 0 .015.001.022.001.008 0 .015-.001.023-.001h55.903l-101.916 101.917v-73.877c0-15.461 12.579-28.04 28.04-28.04zm112.33-56.381-1.585-2.692c-1.797-3.053-5.075-4.927-8.618-4.927h-76.19c-3.542 0-6.82 1.874-8.617 4.927l-23.005 39.073h-12.243c-26.489 0-48.04 21.551-48.04 48.04v93.877l-24.743 24.743c-21.797-31.434-33.257-68.075-33.257-106.66 0-103.664 84.336-188 188-188 38.585 0 75.226 11.46 106.66 33.257z"/><path id="XMLID_957_" d="m127.885 419.756c36.919 28.945 81.22 44.244 128.115 44.244 114.691 0 208-93.309 208-208 0-46.895-15.299-91.196-44.244-128.116-1.766-2.252-4.411-3.64-7.268-3.812-2.851-.177-5.65.888-7.673 2.911l-277.832 277.832c-2.023 2.023-3.083 4.817-2.911 7.673s1.561 5.503 3.813 7.268zm238.115-175.716v99.92c0 15.461-12.579 28.04-28.04 28.04h-149.877l32.272-32.272c10.119 7.875 22.671 12.272 35.645 12.272 31.981 0 58-26.019 58-58 0-12.968-4.397-25.526-12.271-35.646l41.793-41.793c12.841 2.602 22.478 14.079 22.478 27.479zm-78.579 28.623c4.235 6.249 6.579 13.683 6.579 21.337 0 20.953-17.047 38-38 38-7.658 0-15.09-2.343-21.338-6.579zm-118.998 118.997c1.862.217 3.738.34 5.617.34h163.92c26.489 0 48.04-21.551 48.04-48.04v-99.92c0-18.678-10.934-35.184-26.867-43.09l51.61-51.61c21.797 31.434 33.257 68.075 33.257 106.66 0 103.664-84.336 188-188 188-38.585 0-75.226-11.46-106.66-33.257z"/><path id="XMLID_960_" d="m428.27 421.61c-2.63 0-5.21 1.06-7.07 2.92s-2.93 4.44-2.93 7.08c0 2.63 1.07 5.21 2.93 7.07s4.44 2.92 7.07 2.92 5.21-1.06 7.07-2.92c1.87-1.86 2.93-4.44 2.93-7.07 0-2.64-1.06-5.22-2.93-7.08-1.86-1.86-4.44-2.92-7.07-2.92z"/><path id="XMLID_961_" d="m172.81 138.51c-1.625 0-2.946-1.321-2.946-2.945 0-5.523-4.477-10-10-10s-10 4.477-10 10c0 1.624-1.321 2.945-2.945 2.945-5.523 0-10 4.477-10 10s4.477 10 10 10c1.624 0 2.945 1.321 2.945 2.946 0 5.523 4.477 10 10 10s10-4.477 10-10c0-1.625 1.321-2.946 2.946-2.946 5.523 0 10-4.477 10-10s-4.477-10-10-10z"/><path id="XMLID_962_" d="m169 246c0 2.63 1.07 5.21 2.93 7.07s4.44 2.93 7.07 2.93 5.21-1.07 7.07-2.93 2.93-4.44 2.93-7.07-1.07-5.21-2.93-7.07-4.44-2.93-7.07-2.93-5.21 1.07-7.07 2.93-2.93 4.44-2.93 7.07z"/></g></g></g></svg>